<?xml version="1.0" encoding="utf-8"?>
<!-- Generator: Adobe Illustrator 27.4.0, SVG Export Plug-In . SVG Version: 6.00 Build 0)  -->
<svg version="1.1" id="Слой_1" xmlns="http://www.w3.org/2000/svg" xmlns:xlink="http://www.w3.org/1999/xlink" x="0px" y="0px"
	 viewBox="0 0 24 24" style="enable-background:new 0 0 24 24;" xml:space="preserve">
<style type="text/css">
	.st0{fill:#001E36;}
	.st1{fill:#31A8FF;}
</style>
<path class="st0" d="M0.2,8.7c0-3,0-4.5,0.6-5.6c0.5-1,1.3-1.8,2.3-2.3c1.1-0.6,2.6-0.6,5.6-0.6h6.5c3,0,4.5,0,5.6,0.6
	c1,0.5,1.8,1.3,2.3,2.3c0.6,1.1,0.6,2.6,0.6,5.6v6.5c0,3,0,4.5-0.6,5.6c-0.5,1-1.3,1.8-2.3,2.3c-1.1,0.6-2.6,0.6-5.6,0.6H8.7
	c-3,0-4.5,0-5.6-0.6c-1-0.5-1.8-1.3-2.3-2.3c-0.6-1.1-0.6-2.6-0.6-5.6V8.7z"/>
<path class="st1" d="M5.2,17.5V7.1C5.2,7,5.3,7,5.3,7c1,0,2-0.1,3.1-0.1c1.7,0,3.4,0.6,4.1,2.3c0.1,0.4,0.2,0.9,0.2,1.3
	c0,0.9-0.2,1.6-0.6,2.2c-1.1,1.6-3,1.6-4.7,1.6v3.3c0,0.1-0.1,0.1-0.1,0.1H5.3C5.3,17.6,5.2,17.6,5.2,17.5z M7.4,8.9v3.4
	c0.7,0,1.4,0.1,2-0.2c0.7-0.2,1.1-0.8,1.1-1.6c0-0.6-0.3-1.2-0.9-1.5C9,8.9,8.1,8.8,7.4,8.9z"/>
<path class="st1" d="M18.9,11.7c-0.3-0.2-0.6-0.3-0.9-0.3c-0.4-0.1-2.1-0.4-2.1,0.4c0,0.5,0.8,0.7,1.1,0.9c1.2,0.4,2.6,1.1,2.5,2.6
	c0,1.8-1.7,2.6-3.3,2.6c-0.8,0-1.6-0.1-2.4-0.5c-0.1,0-0.1-0.1-0.1-0.2v-1.8c0-0.1,0.1-0.1,0.1-0.1c0.7,0.4,1.6,0.6,2.4,0.7
	c0.4,0,1.1,0,1.1-0.6c0-0.5-0.9-0.7-1.2-0.9c-0.5-0.2-1-0.4-1.4-0.7c-0.6-0.4-1-1.1-1-1.9c0-1.7,1.6-2.5,3.1-2.5
	c0.7,0,1.4,0,2.1,0.3C19,9.7,19,9.8,19,9.9v1.6C19,11.7,18.9,11.7,18.9,11.7z"/>
</svg>
