<?xml version="1.0" encoding="utf-8"?>
<!-- Generator: Adobe Illustrator 27.4.0, SVG Export Plug-In . SVG Version: 6.00 Build 0)  -->
<svg version="1.1" id="Слой_1" xmlns="http://www.w3.org/2000/svg" xmlns:xlink="http://www.w3.org/1999/xlink" x="0px" y="0px"
	 viewBox="0 0 24 24" style="enable-background:new 0 0 24 24;" xml:space="preserve">
<style type="text/css">
	.st0{fill:#470137;}
	.st1{fill:#FF61F6;}
</style>
<path class="st0" d="M0.1,8.7c0-3,0-4.5,0.6-5.7C1.2,2,2,1.2,3,0.7c1.2-0.6,2.7-0.6,5.7-0.6h6.6c3,0,4.5,0,5.7,0.6
	C22,1.2,22.8,2,23.3,3c0.6,1.2,0.6,2.7,0.6,5.7v6.6c0,3,0,4.5-0.6,5.7c-0.5,1-1.3,1.8-2.4,2.4c-1.2,0.6-2.7,0.6-5.7,0.6H8.7
	c-3,0-4.5,0-5.7-0.6C2,22.8,1.2,22,0.7,21c-0.6-1.2-0.6-2.7-0.6-5.7V8.7z"/>
<path class="st1" d="M12.6,7.1l-3,5l3.2,5.3c0.1,0.1,0,0.1-0.1,0.1h-2.3c-0.2,0-0.3,0-0.3-0.1c-0.2-0.4-0.4-0.8-0.6-1.3
	c-0.2-0.4-0.4-0.8-0.7-1.3c-0.2-0.4-0.5-0.9-0.7-1.3c-0.2,0.4-0.5,0.9-0.7,1.3c-0.2,0.4-0.5,0.9-0.7,1.3c-0.2,0.4-0.5,0.9-0.7,1.3
	c0,0.1-0.1,0.1-0.2,0.1H3.6c-0.1,0-0.1-0.1,0-0.1l3.1-5.2l-3-5.2C3.5,7,3.6,6.9,3.7,6.9h2.3C6,6.9,6.1,7,6.2,7
	c0.2,0.4,0.4,0.9,0.6,1.3C7,8.8,7.3,9.2,7.5,9.7c0.2,0.4,0.5,0.9,0.7,1.3c0.2-0.4,0.4-0.9,0.6-1.3c0.2-0.4,0.4-0.9,0.7-1.3
	c0.2-0.4,0.5-0.9,0.7-1.3c0-0.1,0.1-0.1,0.2-0.1h2.1C12.6,6.9,12.6,7,12.6,7.1z"/>
<path class="st1" d="M17.1,17.8c-1.4,0-2.9-0.6-3.6-1.8c-0.4-0.6-0.5-1.4-0.5-2.3c0-0.8,0.2-1.5,0.5-2.1c0.9-1.7,2.8-2.3,4.6-2.1
	V6.2c0-0.1,0-0.1,0.1-0.1h2c0.1,0,0.1,0,0.1,0.1v9.7c0,0.4,0,0.8,0.1,1.2c0,0.1,0,0.1-0.1,0.2C19.3,17.6,18.2,17.8,17.1,17.8z
	 M18.1,15.8v-4.5c-1.5-0.4-2.9,0.7-2.9,2.2C15.2,15.2,16.6,16.3,18.1,15.8z"/>
</svg>
