<?xml version="1.0" encoding="utf-8"?>
<!-- Generator: Adobe Illustrator 27.4.0, SVG Export Plug-In . SVG Version: 6.00 Build 0)  -->
<svg version="1.1" id="Слой_1" xmlns="http://www.w3.org/2000/svg" xmlns:xlink="http://www.w3.org/1999/xlink" x="0px" y="0px"
	 viewBox="0 0 24 24" style="enable-background:new 0 0 24 24;" xml:space="preserve">
<style type="text/css">
	.st0{fill:#330000;}
	.st1{fill:#FF9A00;}
</style>
<path class="st0" d="M0.2,8.7c0-3,0-4.5,0.6-5.6c0.5-1,1.3-1.8,2.3-2.3c1.1-0.6,2.6-0.6,5.6-0.6h6.5c3,0,4.5,0,5.6,0.6
	c1,0.5,1.8,1.3,2.3,2.3c0.6,1.1,0.6,2.6,0.6,5.6v6.5c0,3,0,4.5-0.6,5.6c-0.5,1-1.3,1.8-2.3,2.3c-1.1,0.6-2.6,0.6-5.6,0.6H8.7
	c-3,0-4.5,0-5.6-0.6c-1-0.5-1.8-1.3-2.3-2.3c-0.6-1.1-0.6-2.6-0.6-5.6V8.7z"/>
<path class="st1" d="M11.6,15H8l-0.7,2.4c0,0.1-0.1,0.2-0.2,0.1H5.2c-0.1,0-0.1-0.1-0.1-0.2L8.2,8c0-0.1,0.1-0.2,0.1-0.3
	c0-0.2,0.1-0.4,0.1-0.7c0-0.1,0-0.1,0.1-0.1H11c0.1,0,0.1,0,0.1,0.1l3.6,10.4c0,0.1,0,0.2-0.1,0.2h-2.1c-0.1,0-0.1,0-0.2-0.1
	L11.6,15z M8.5,13h2.5c-0.4-1.4-0.9-2.8-1.3-4.2C9.4,10.2,9,11.6,8.5,13z"/>
<path class="st1" d="M16.9,8.6c-0.2,0-0.3,0-0.5-0.1c-0.2-0.1-0.3-0.2-0.4-0.3c-0.1-0.1-0.2-0.3-0.3-0.4c-0.1-0.2-0.1-0.3-0.1-0.5
	c0-0.2,0-0.3,0.1-0.5c0.1-0.2,0.2-0.3,0.3-0.4c0.1-0.1,0.3-0.2,0.4-0.3c0.2-0.1,0.3-0.1,0.5-0.1c0.4,0,0.7,0.1,0.9,0.3
	c0.1,0.1,0.2,0.3,0.2,0.4c0.1,0.2,0.1,0.3,0.1,0.5c0,0.2,0,0.3-0.1,0.5C18,8,17.9,8.2,17.8,8.3c-0.1,0.1-0.3,0.2-0.4,0.3
	C17.2,8.6,17.1,8.6,16.9,8.6z M15.8,17.4V9.6c0-0.1,0-0.1,0.1-0.1h1.9c0.1,0,0.1,0,0.1,0.1v7.8c0,0.1,0,0.2-0.1,0.2h-1.9
	C15.8,17.5,15.8,17.5,15.8,17.4z"/>
</svg>
