<?xml version="1.0" encoding="utf-8"?>
<!-- Generator: Adobe Illustrator 27.4.0, SVG Export Plug-In . SVG Version: 6.00 Build 0)  -->
<svg version="1.1" id="Слой_1" xmlns="http://www.w3.org/2000/svg" xmlns:xlink="http://www.w3.org/1999/xlink" x="0px" y="0px"
	 viewBox="0 0 24 24" style="enable-background:new 0 0 24 24;" xml:space="preserve">
<style type="text/css">
	.st0{fill:#563D7C;}
	.st1{fill:#FFFFFF;}
</style>
<g>
	<path class="st0" d="M0.1,20.8c0,1.7,1.4,3.1,3.1,3.1h17.6c1.7,0,3.1-1.4,3.1-3.1V3.2c0-1.7-1.4-3.1-3.1-3.1H3.2
		c-1.7,0-3.1,1.4-3.1,3.1V20.8z"/>
	<path class="st1" d="M10,10.6V7.3h3c0.3,0,0.6,0,0.8,0.1c0.3,0,0.5,0.1,0.7,0.3c0.2,0.1,0.4,0.3,0.5,0.5c0.1,0.2,0.2,0.5,0.2,0.8
		c0,0.6-0.2,1-0.5,1.3c-0.4,0.3-0.8,0.4-1.4,0.4H10L10,10.6z M6.8,4.8v14.4h7c0.6,0,1.3-0.1,1.9-0.2c0.6-0.2,1.2-0.4,1.6-0.7
		c0.5-0.3,0.9-0.8,1.1-1.3s0.4-1.2,0.4-1.9c0-0.9-0.2-1.7-0.7-2.3c-0.4-0.6-1.1-1.1-2-1.3c0.6-0.3,1.1-0.7,1.5-1.2
		c0.3-0.5,0.5-1.1,0.5-1.8c0-0.7-0.1-1.2-0.3-1.7c-0.2-0.5-0.5-0.8-0.9-1.1C16.5,5.3,16,5.1,15.4,5c-0.6-0.1-1.2-0.2-1.9-0.2H6.8
		L6.8,4.8z M10,16.7v-3.9h3.4c0.7,0,1.2,0.2,1.6,0.5c0.4,0.3,0.6,0.8,0.6,1.6c0,0.4-0.1,0.7-0.2,0.9c-0.1,0.2-0.3,0.4-0.5,0.6
		c-0.2,0.1-0.5,0.2-0.7,0.3c-0.3,0.1-0.6,0.1-0.9,0.1H10L10,16.7z"/>
</g>
</svg>
