<?xml version="1.0" encoding="utf-8"?>
<!-- Generator: Adobe Illustrator 27.0.0, SVG Export Plug-In . SVG Version: 6.00 Build 0)  -->
<svg version="1.1" id="Слой_1" xmlns="http://www.w3.org/2000/svg" xmlns:xlink="http://www.w3.org/1999/xlink" x="0px" y="0px"
	 viewBox="0 0 24 24" style="enable-background:new 0 0 24 24;" xml:space="preserve">
<style type="text/css">
	.st0{fill:none;stroke:#000000;stroke-width:1.5;stroke-linecap:round;}
</style>
<path class="st0" d="M13.2,1.1c0,0,2.7,0.2,6.1,3.6s3.6,6.1,3.6,6.1"/>
<path class="st0" d="M13.5,5.4c0,0,1.2,0.3,3,2.1c1.8,1.8,2.1,3,2.1,3"/>
<path class="st0" d="M8.4,5.1l0.8,1.4c0.7,1.3,0.4,2.9-0.7,4.1l0,0c0,0-1.4,1.4,1.1,3.8c2.5,2.5,3.8,1.1,3.8,1.1l0,0
	c1.1-1.1,2.8-1.4,4.1-0.7l1.4,0.8c1.9,1.1,2.1,3.8,0.5,5.4c-1,1-2.3,1.8-3.6,1.9c-2.3,0.1-6.2-0.5-10.2-4.4C1.6,14.5,1,10.6,1.1,8.3
	C1.2,6.9,2,5.7,3,4.7C4.7,3,7.3,3.2,8.4,5.1z"/>
</svg>
