<?xml version="1.0" encoding="utf-8"?>
<!-- Generator: Adobe Illustrator 27.4.0, SVG Export Plug-In . SVG Version: 6.00 Build 0)  -->
<svg version="1.1" id="Слой_1" xmlns="http://www.w3.org/2000/svg" xmlns:xlink="http://www.w3.org/1999/xlink" x="0px" y="0px"
	 viewBox="0 0 24 24" style="enable-background:new 0 0 24 24;" xml:space="preserve">
<style type="text/css">
	.st0{fill-rule:evenodd;clip-rule:evenodd;fill:#1ABCFE;}
	.st1{fill-rule:evenodd;clip-rule:evenodd;fill:#0ACF83;}
	.st2{fill-rule:evenodd;clip-rule:evenodd;fill:#FF7262;}
	.st3{fill-rule:evenodd;clip-rule:evenodd;fill:#F24E1E;}
	.st4{fill-rule:evenodd;clip-rule:evenodd;fill:#A259FF;}
</style>
<path class="st0" d="M12,12c0-2.1,1.7-3.9,3.9-3.9s3.9,1.7,3.9,3.9s-1.7,3.9-3.9,3.9S12,14.1,12,12z"/>
<path class="st1" d="M4.3,19.7c0-2.1,1.7-3.9,3.9-3.9H12v3.9c0,2.1-1.7,3.9-3.9,3.9C6,23.6,4.3,21.9,4.3,19.7z"/>
<path class="st2" d="M12,0.4v7.7h3.9c2.1,0,3.9-1.7,3.9-3.9c0-2.1-1.7-3.9-3.9-3.9H12z"/>
<path class="st3" d="M4.3,4.3c0,2.1,1.7,3.9,3.9,3.9H12V0.4H8.1C6,0.4,4.3,2.1,4.3,4.3z"/>
<path class="st4" d="M4.3,12c0,2.1,1.7,3.9,3.9,3.9H12V8.1H8.1C6,8.1,4.3,9.9,4.3,12z"/>
</svg>
