<?xml version="1.0" encoding="utf-8"?>
<!-- Generator: Adobe Illustrator 27.4.0, SVG Export Plug-In . SVG Version: 6.00 Build 0)  -->
<svg version="1.1" id="Слой_1" xmlns="http://www.w3.org/2000/svg" xmlns:xlink="http://www.w3.org/1999/xlink" x="0px" y="0px"
	 viewBox="0 0 11.1 24" style="enable-background:new 0 0 11.1 24;" xml:space="preserve">
<style type="text/css">
	.st0{fill:#D34A47;}
	.st1{fill:#FFFFFF;}
</style>
<g>
	<path class="st0" d="M8.5,23l0.2-3.8l0.6-1.1c0,0-1.4,0.6-3.8,0.6c-2.4,0-3.8-0.6-3.8-0.6l0.7,1.2L2.7,23c0,0.4,1.3,0.7,2.9,0.7
		C7.2,23.8,8.5,23.4,8.5,23"/>
	<path class="st0" d="M7.8,5.5l0.5-1.9l2.6-2.8l-0.7-0.6L7.4,3.2L6.9,5.4c-0.4,0-0.8,0-1.2,0c-2.9,0-5.3,0.3-5.3,0.7
		c0,0.4,2.4,0.7,5.3,0.7c2.9,0,5.3-0.3,5.3-0.7C10.9,5.9,9.6,5.6,7.8,5.5"/>
	<path class="st1" d="M7.5,6.5c0,0-0.1,0-0.4,0c-0.3,0-0.5,0-0.6-0.1c0,0,0-0.1,0-0.1c0-0.1,0-0.1,0.1-0.1l0,0.1c0,0,0,0,0,0
		c0,0,0.3,0.1,0.5,0.1c0.2,0,0.5,0,0.5-0.1c0,0,0,0-0.1,0l0-0.1c0.1,0,0.1,0.1,0.1,0.1C7.7,6.5,7.6,6.5,7.5,6.5"/>
	<path class="st0" d="M10.9,0.9c0.1-0.1,0-0.3-0.2-0.4c-0.2-0.2-0.4-0.2-0.5-0.2c-0.1,0.1,0,0.3,0.2,0.4C10.6,0.9,10.8,0.9,10.9,0.9
		"/>
	<path class="st0" d="M8.4,13.9c-0.1-0.6,1.3-1.5,1-1.5c-0.8,0-1.1,0.9-1.5,1.8c-0.1,0.3-0.6,1.7-0.9,1.5c-0.3-0.2,0.4-1.3,0.6-2
		c-0.2,0.2-1.1,0.8-1.3,0.2c-0.4,0.3-1.1,0.5-1-0.3C5,13.9,4.5,14.4,4,14.2c-0.7-0.3,0.4-2.4,0.6-2.3c0.3,0.1-0.1,0.6-0.1,0.8
		c-0.2,0.4-0.4,0.9-0.3,1c0.2,0.2,0.9-0.7,0.9-0.7c0.1-0.2,0.5-1.2,0.7-1.1c0.3,0.1-0.7,1.5-0.3,1.8c0.1,0.1,0.4,0,0.6-0.2
		c0.1-0.1,0.1-0.4,0.5-1.4c0.4-0.9,0.7-2.1,1-2c0.3,0.1,0,0.7,0,0.9c-0.5,1.1-1.2,2.8-0.9,2.7c0.4-0.1,0.6-0.1,0.9-0.6
		C8,12.7,8,12,8.3,12c0.2,0,0.2,0.2,0.1,0.4c0.2-0.3,1.1-0.8,1.3-0.3c0.3,0.7-1.3,1.7-0.9,1.6c0.4,0,1-0.4,1.2-0.8l0.7-6.4
		c0,0-0.7,0.6-5.3,0.6C1,7.2,0.4,6.6,0.4,6.6L1,12.4C1.3,11.5,2,9.7,3.3,9.7c0.5,0,1.3,1.1,0.7,1.1c-0.3,0-0.3-0.5-0.6-0.6
		c-0.2-0.1-0.5,0.1-0.7,0.3c-0.4,0.4-1.3,2-1.2,2.7c0.1,1,1.4-0.3,1.6-0.7c0.1-0.3,0.2-1.1,0.6-1c0.3,0.1,0,0.9-0.3,1.7
		C3,14.1,2.9,15,2.6,14.9c-0.3-0.1,0.2-1.2,0.2-1.4c-0.3,0.3-0.9,1-1.6,0.6l0.4,3.6c0,0,1,0.8,4,0.8s4-0.8,4-0.8l0.5-4.2
		C9.7,13.9,8.4,14.6,8.4,13.9"/>
</g>
</svg>
