<?xml version="1.0" encoding="utf-8"?>
<!-- Generator: Adobe Illustrator 27.4.0, SVG Export Plug-In . SVG Version: 6.00 Build 0)  -->
<svg version="1.1" id="Слой_1" xmlns="http://www.w3.org/2000/svg" xmlns:xlink="http://www.w3.org/1999/xlink" x="0px" y="0px"
	 viewBox="0 0 24 24" style="enable-background:new 0 0 24 24;" xml:space="preserve">
<style type="text/css">
	.st0{fill:#0868AC;}
	.st1{fill:#131B28;}
</style>
<g transform="matrix(.945094 0 0 .945094 6.301403 4.347014)">
	<path class="st0" d="M-1-0.4c-1.4,2.1-1.3,4.8-0.2,7.1l0.1,0.2l0.1,0.1C-1,7-1,7-1,7C-1,7-1,7.1-1,7.1l0.1,0.2l0.1,0.1l0.1,0.2
		l0.1,0.1c0.1,0.1,0.1,0.2,0.2,0.3c0,0,0,0,0,0c0,0,0,0,0,0C-0.4,8-0.3,8.1-0.3,8.2l0.1,0.1l0.1,0.2L0,8.5c0.1,0.1,0.1,0.2,0.2,0.2
		l0,0c0,0,0,0,0,0C0.3,8.9,0.4,8.9,0.4,9l0.1,0.1l0.2,0.2l0.1,0.1C0.8,9.4,0.9,9.4,1,9.5l0,0l0.2,0.2l0.1,0.1l0.2,0.1L1.6,10
		l0.3,0.2c0,0,0,0,0,0c0.1,0,0.1,0.1,0.2,0.1l0.1,0.1l0.3,0.2l0.1,0l0.2,0.1c0,0,0.1,0,0.1,0.1L3,10.9l0,0l0.1,0l0.3,0.1l0.1,0
		c0.1,0,0.2,0.1,0.3,0.1l0.1,0l0.3,0.1l0,0c0.1,0,0.2,0.1,0.3,0.1l0.1,0c0.1,0,0.2,0.1,0.3,0.1c7,1.3,9-4.3,9-4.3
		c-1.7,2.3-4.7,2.8-7.6,2.2C6.1,9.5,6,9.5,5.9,9.4l-0.1,0c-0.1,0-0.2-0.1-0.3-0.1l0,0c-0.1,0-0.2-0.1-0.3-0.1l-0.1,0
		C5,9.1,4.9,9.1,4.8,9L4.8,9L4.5,8.9l-0.1,0c-0.1,0-0.1-0.1-0.2-0.1L4.1,8.7C4.1,8.7,4,8.6,3.9,8.6l-0.1,0C3.7,8.5,3.6,8.4,3.5,8.3
		c0,0-0.1,0-0.1-0.1L3.3,8.1l-0.1,0L3,7.9L2.9,7.9L2.7,7.7L2.6,7.7L2.4,7.5c0,0,0,0,0,0C2.3,7.4,2.2,7.3,2.1,7.2L2.1,7.2L1.9,7
		L1.8,6.9C1.8,6.9,1.7,6.8,1.6,6.7c0,0,0,0,0,0C1.6,6.6,1.5,6.5,1.4,6.5L1.4,6.4L1.2,6.2L1.2,6.1L1,5.9c-1.6-2.2-2.2-5.2-0.9-7.7
		 M3.4-2.2c-1,1.5-1,3.6-0.2,5.2c0.1,0.3,0.3,0.5,0.5,0.8C3.9,4,4,4.3,4.3,4.5c0.1,0.1,0.2,0.2,0.2,0.2c0,0,0,0,0.1,0.1
		C4.6,4.9,4.7,4.9,4.8,5c0,0,0,0,0,0C4.9,5.1,5,5.2,5.1,5.3l0.1,0.1c0.1,0.1,0.2,0.1,0.3,0.2c0,0,0,0,0,0c0,0,0.1,0.1,0.1,0.1
		c0,0,0,0,0.1,0c0.1,0,0.1,0.1,0.2,0.1l0,0l0.2,0.1c0,0,0,0,0.1,0L6.3,6c0,0,0,0,0,0c0.1,0,0.2,0.1,0.3,0.1c0,0,0,0,0.1,0
		c0.1,0,0.2,0.1,0.2,0.1l0.1,0c0.1,0,0.1,0.1,0.2,0.1l0.1,0c0.1,0,0.2,0.1,0.3,0.1c5.4,0.9,6.6-3.3,6.6-3.3C13.1,4.9,10.9,5.6,8.6,5
		C8.5,5,8.4,5,8.3,4.9c0,0-0.1,0-0.1,0c-0.1,0-0.1,0-0.2-0.1l-0.1,0c-0.1,0-0.2-0.1-0.2-0.1c0,0,0,0-0.1,0c-0.1,0-0.2-0.1-0.3-0.1
		c0,0-0.1,0-0.1-0.1l-0.1,0C7,4.4,7,4.4,6.9,4.3l0,0c-0.1,0-0.1-0.1-0.2-0.1c0,0,0,0-0.1,0L6.5,4C6.4,4,6.3,3.9,6.2,3.8L6.1,3.8
		c-1-0.8-1.8-1.9-2.2-3.2c-0.4-1.3-0.3-2.8,0.4-4 M7.2-3.5C6.6-2.6,6.5-1.4,6.9-0.4c0.4,1.1,1.4,1.9,2.4,2.3c0,0,0.1,0,0.1,0l0.1,0
		C9.6,2,9.7,2,9.8,2c3,0.6,3.8-1.5,4-1.9c-0.7,1-1.9,1.3-3.3,0.9c-0.1,0-0.2-0.1-0.4-0.1C9.9,0.9,9.8,0.9,9.6,0.8
		C9.4,0.7,9.1,0.5,8.9,0.3c-1.3-1-2.1-2.9-1.3-4.5"/>
	<g>
		<path class="st1" d="M0.6,16l-0.2,0.7L0.6,16L0.6,16z M1.7,17.6l-0.2,0L1.7,17.6z M1.6,18.6l-1.3,0L1.6,18.6z M1.9,17.6l-0.2,0
			L1.9,17.6z M1.7,18.5L2,17.7L1.7,18.5z M6.6,14.5l-0.4,2L6.6,14.5z M5.5,14.5L5.2,16L5.5,14.5z"/>
		<path class="st1" d="M6.5,14.4H5.6c-0.1,0-0.1,0-0.1,0.1l-0.7,3c0,0-0.1,0.1-0.1,0.1H4.1c-0.6,0-0.6-0.4-0.4-1.1l0,0l0.1-0.4
			l0-0.2l0.3-1.5c0-0.1,0-0.1-0.1-0.1H3.1c-0.1,0-0.1,0-0.1,0.1l-0.4,2c-0.2,1.1-0.2,2.1,1.1,2.1l0,0h2c0.1,0,0.1,0,0.1-0.1
			L6.5,14.4C6.6,14.4,6.6,14.4,6.5,14.4L6.5,14.4z M10.2,17.6C10.3,17.6,10.3,17.6,10.2,17.6l0,0.5 M10.1,18.6l0.1-0.4L10.1,18.6z
			 M10,18.7l-1.7,0L10,18.7z"/>
		<path class="st1" d="M7.8,17c0,0,0.1-0.1,0.1-0.1l-0.1,0C7.7,17.4,7.8,17,7.8,17z M8.4,18.7L8.4,18.7L8.4,18.7z M10.2,17.6
			C10.3,17.6,10.3,17.6,10.2,17.6l0,0.6 M8.8,18.7L8.8,18.7L8.8,18.7z M8.6,18.7L8.6,18.7L8.6,18.7z M8.5,18.7L8.5,18.7L8.5,18.7z
			 M8.5,18.7L8.5,18.7L8.5,18.7z M8.6,18.7L8.6,18.7L8.6,18.7z"/>
		<path class="st1" d="M8.8,18.7l-0.2,0C8.6,18.7,8.8,18.7,8.8,18.7z M10,18.7l-1.2,0L10,18.7z M10.1,18.6l0.1-0.4L10.1,18.6
			L10.1,18.6z M8.5,18.7L8.5,18.7L8.5,18.7L8.5,18.7z M8.4,18.7L8.4,18.7L8.4,18.7z M8.4,18.7L8.4,18.7L8.4,18.7z M-5,17l0.1-0.6
			L-5,17l0,0.2L-5,17L-5,17z M-3.3,14.4h-1c-0.1,0-0.1,0-0.1,0.1l-0.2,0.8c0,0,0,0.1,0,0.1c0,0,0,0,0,0h1c0.1,0,0.1,0,0.1-0.1
			L-3.3,14.4C-3.2,14.4-3.3,14.4-3.3,14.4L-3.3,14.4z M-3.5,15.8l-0.3,1.4L-3.5,15.8z M-6.5,20.3l0.8,0C-5.9,20.3-6.3,20.3-6.5,20.3
			L-6.5,20.3z"/>
		<path class="st1" d="M-4.7,15.8l-0.1,0.6L-4.7,15.8z M-3.6,15.7h-1c-0.1,0-0.1,0-0.1,0.1L-5,17l0,0.2l-0.3,1.3c0,0.1,0,0.1,0,0.2
			c0,0-0.2,0.6-0.5,0.6l-0.3,0c-0.1,0-0.1,0-0.1,0.1l-0.2,0.9c0,0,0,0.1,0,0.1c0,0,0,0,0,0l0.8,0c0.8,0,1.2-0.4,1.5-1.7L-3.6,15.7
			C-3.5,15.7-3.6,15.7-3.6,15.7L-3.6,15.7z M10.9,18.6C10.8,18.6,10.8,18.6,10.9,18.6l0.7-3.7 M11.9,18.5l0.3-1.5L11.9,18.5z"/>
		<path class="st1" d="M10.8,18.6c0,0,0-0.1,0-0.1l0.4-1.7L10.8,18.6C10.8,18.6,10.8,18.6,10.8,18.6l0.2,0
			C10.9,18.6,10.8,18.6,10.8,18.6z M11.9,18.6c0,0-0.1,0-0.1,0L11.9,18.6C11.9,18.6,11.9,18.6,11.9,18.6l0.1-0.2
			C11.9,18.5,11.9,18.6,11.9,18.6L11.9,18.6z M12.1,17.8l0.1-0.7L12.1,17.8z M15.1,15.2l0,0.2c0,0,0,0.1-0.1,0.1"/>
		<path class="st1" d="M11.9,18.4l0.1-0.7L11.9,18.4z M15.1,15l0,0.2L15.1,15z M12.2,17.1l0-0.2l0.1-0.7L12.2,17.1L12.2,17.1
			L12.2,17.1z M11.6,14.9l0,0.1l-0.4,1.7L11.6,14.9L11.6,14.9L11.6,14.9z"/>
		<path class="st1" d="M15.1,15.3l0-0.2L15,14.9c-0.1-0.3-0.3-0.5-0.9-0.5l-2.4,0c-0.1,0-0.1,0-0.1,0.1l0,0.2l-0.1,0.3l-0.7,3.5
			c0,0.1,0,0.1,0,0.1c0,0,0.1,0,0.2,0h0.8c0.1,0,0.1,0,0.1,0c0,0,0.1-0.1,0.1-0.2l0.3-1.4l0.3-1.5c0,0,0.1-0.1,0.1-0.1L15.1,15.3
			C15.1,15.4,15.2,15.4,15.1,15.3L15.1,15.3z M18.3,13.8l-0.2,0h-0.8c-0.1,0-0.1,0-0.1,0.1l-1.7,2.5c0,0-0.1,0-0.1,0l-0.1-0.6
			c0-0.1-0.1-0.1-0.1-0.1H14c-0.1,0-0.1,0-0.1,0.1l0.5,1.7c0,0,0,0.1,0,0.2l-0.2,0.8c0,0,0,0.1,0,0.1c0,0,0,0,0,0h1.1
			c0.1,0,0.1,0,0.1-0.1l0.2-0.8c0-0.1,0-0.1,0.1-0.2l2.8-3.7c0,0,0-0.1,0-0.1L18.3,13.8L18.3,13.8z M9.5,15.9C9.5,16,9.5,16,9.4,16
			H8C8,16,7.9,16,8,16l0,0l0,0c0.1-0.4,0.4-0.6,0.9-0.6C9.5,15.3,9.6,15.6,9.5,15.9L9.5,15.9z M9.1,14.3c-1.8,0-2.2,1.1-2.4,2.2
			c-0.2,1.1-0.2,2.2,1.6,2.2h0.3l0.2,0l1.2,0c0.1,0,0.1,0,0.1-0.1l0.2-0.9c0-0.1,0-0.1-0.1-0.1H8.5c-0.7,0-0.9-0.2-0.8-0.7h2.7
			c0,0,0.1,0,0.1-0.1c0,0,0,0,0,0C10.9,15.3,10.8,14.3,9.1,14.3L9.1,14.3z M0.7,15.9L0.7,15.9c0,0.1-0.2,0.8-0.2,0.8l-0.2,0.7
			c0,0.1-0.1,0.1-0.1,0.1h-1.1c-0.8,0-1-0.6-0.8-1.6c0.2-1,0.6-1.5,1.4-1.6C0.7,14.3,0.9,15,0.7,15.9L0.7,15.9z M1.4,17.5
			c0,0,0.5-1.2,0.6-1.9c0.2-0.9-0.3-2.3-2.1-2.3c-1.8,0-2.6,1.3-2.9,2.7c-0.3,1.4,0.1,2.7,1.9,2.7l2.7,0c0.1,0,0.1,0,0.1-0.1L2,17.7
			c0,0,0-0.1,0-0.1c0,0,0,0,0,0L1.4,17.5C1.4,17.6,1.4,17.5,1.4,17.5C1.4,17.5,1.4,17.5,1.4,17.5L1.4,17.5z"/>
		<path class="st1" d="M10.3,16.7C10.3,16.7,10.3,16.7,10.3,16.7c-0.1,0.1-0.1,0-0.1,0S10.3,16.6,10.3,16.7
			C10.3,16.6,10.3,16.6,10.3,16.7z"/>
	</g>
</g>
</svg>
