<?xml version="1.0" encoding="utf-8"?>
<!-- Generator: Adobe Illustrator 27.4.0, SVG Export Plug-In . SVG Version: 6.00 Build 0)  -->
<svg version="1.1" id="Слой_1" xmlns="http://www.w3.org/2000/svg" xmlns:xlink="http://www.w3.org/1999/xlink" x="0px" y="0px"
	 viewBox="0 0 24 24" style="enable-background:new 0 0 24 24;" xml:space="preserve">
<style type="text/css">
	.st0{fill:#FDBD39;}
	.st1{fill:#F69833;}
	.st2{fill:#FECF33;}
	.st3{fill:#EE6723;}
</style>
<g>
	<path class="st0" d="M3.8,15.6L2.6,16l-0.1,3.7l4.3-1.6C5.3,17.7,4.2,16.8,3.8,15.6"/>
	<path class="st1" d="M4.5,11.7l-4.3,1.6L2.6,16l1.2-0.5C3.4,14.4,3.6,13,4.5,11.7"/>
	<path class="st2" d="M11.7,6.4c-5.5,2-9,6.1-7.9,9.2l19.8-7.2C22.5,5.3,17.2,4.4,11.7,6.4"/>
	<path class="st3" d="M15.8,17.6c5.5-2,9-6.1,7.9-9.2L3.8,15.6C4.9,18.7,10.3,19.6,15.8,17.6"/>
	<path class="st1" d="M23.6,8.3L3.8,15.6c0.4,1.1,1.9,1.6,3.9,1.6c2,0,4.6-0.5,7.3-1.5C20.6,13.7,24.4,10.5,23.6,8.3"/>
	<path class="st0" d="M19.7,6.7c-2,0-4.6,0.5-7.3,1.5c-5.5,2-9.3,5.2-8.6,7.4l19.8-7.2C23.2,7.3,21.8,6.7,19.7,6.7"/>
	<path class="st3" d="M18.6,19.9L18.6,19.9c-0.6,0-1.4-0.5-2.6-1.6c-1.3-1.2-2.8-3-4.3-5.1c-1.4-2-2.6-4.1-3.3-5.7
		C7.7,5.7,7.6,4.6,8.2,4.2c0.1-0.1,0.3-0.1,0.4-0.1C9,4.1,9.9,4.4,11.5,6l0,0l0,0c0,0.1,0,0.2,0,0.3l0,0.2l-0.2-0.2
		C9.6,4.8,8.9,4.6,8.6,4.6c-0.1,0-0.1,0-0.2,0c-0.2,0.2-0.3,1,0.5,2.7C9.6,9,10.8,11,12.2,13c1.4,2,2.9,3.8,4.2,5
		c1.4,1.3,2,1.4,2.2,1.4c0.1,0,0.1,0,0.2,0c0.3-0.2,0.3-1.1-0.6-2.9l0-0.1l0.1,0c0.1,0,0.2-0.1,0.2-0.1l0.1-0.1l0,0.1
		c0.6,1.3,1.1,3,0.4,3.5C18.9,19.9,18.8,19.9,18.6,19.9L18.6,19.9z M18.6,19.7L18.6,19.7l0,0.1L18.6,19.7z"/>
	<path class="st3" d="M15.9,17.5l0,0.1c-0.1,1.7-0.5,3.8-1.5,3.9c0,0,0,0-0.1,0c-0.6,0-1.3-0.9-1.8-2.7c-0.5-1.7-0.9-4-1.2-6.5
		c-0.2-2.5-0.2-4.8,0-6.6c0.2-2,0.7-3,1.4-3c0,0,0,0,0.1,0c0.5,0,1.2,0.5,1.9,3l-0.5,0.1c-0.2-0.8-0.5-1.5-0.8-2
		C13.3,3.2,13,3,12.8,3c0,0,0,0,0,0c-0.3,0-0.7,0.7-0.9,2.6c-0.2,1.8-0.2,4.1,0,6.5c0.2,2.5,0.6,4.7,1.1,6.4
		c0.2,0.8,0.5,1.4,0.7,1.8c0.2,0.4,0.5,0.6,0.6,0.6c0,0,0,0,0,0c0.3,0,0.8-0.8,1-3.3L15.9,17.5"/>
</g>
</svg>
